<svg version="1.2" xmlns="http://www.w3.org/2000/svg" viewBox="0 0 507 115" width="507" height="115">
	<style>
		.s0 { fill: #29b5ec } 
		.s1 { fill: #060607 } 
		.s2 { fill: #8bc731 } 
		.s3 { fill: #fdfdfd } 
	</style>
	<path class="s0" d="m98.12 49.48c1.25 0.4 2.53 0.73 3.75 1.23 0.65 0.27 1.45 0.7 1.72 1.28 0.78 1.7 2.05 1.58 3.62 1.66 1.48 0.08 3.38 0.6 4.26 1.64 1.21 1.43 0.48 3.24-0.83 4.71-0.47 0.53-0.62 1.48-0.63 2.25q-0.07 10.74 0.01 21.48c0.01 0.7 0.4 1.54 0.87 2.09 1.32 1.54 1.61 3.47 0.48 4.8-0.8 0.94-2.72 0.96-4.16 1.3-0.83 0.2-1.83-0.04-2.54 0.33q-8.59 4.56-17.07 9.34c-0.68 0.38-0.95 1.42-1.56 1.99-0.9 0.82-1.97 2.1-2.92 2.06-1.13-0.05-2.29-1.2-3.27-2.06-0.79-0.69-1.17-1.96-2.03-2.45-4.4-2.53-8.89-4.88-13.34-7.31-2.25-1.23-4.37-2.54-7.24-2.03-0.9 0.15-2.63-1.21-3.03-2.25-0.37-0.98 0.46-2.45 0.85-3.69 0.22-0.72 0.88-1.39 0.88-2.08q0.1-10.87 0-21.73c-0.01-0.77-0.45-1.68-0.98-2.28-1.31-1.49-1.95-3.15-0.95-4.9 1.05-1.86 2.77-2.02 4.74-1.27 0.6 0.22 1.52-0.02 2.16-0.33 2.19-1.08 4.33-2.28 6.74-3.49q0.55 1.54 0.41 3.2c-2.33 0.94-4.44 1.86-6.56 2.77q0.1 0.16 0.19 0.31c3.98 0 7.96 0 12.07 0.13 1.34 0.6 2.56 1.07 3.79 1.65 0.14 0.33 0.26 0.53 0.45 0.91-1.21 1.5-2.55 2.75-3.68 4.18-0.27 0.34-0.09 1.55 0.27 1.8 1.4 0.96 2.93 1.74 4.45 2.51 1.81 0.9 2.4 0.03 2.39-1.72 0-1.81 0.07-3.63 0.3-5.53 0.84-0.11 1.5-0.13 2.25 0.08 0.13 2.05 0.12 3.88 0.23 5.69 0.11 1.81 0.96 2.36 2.63 1.39 1.7-0.98 3.45-1.89 5.55-3.04-1.52-1.95-2.9-3.71-4.32-5.66-0.29-0.65-0.55-1.11-0.9-1.75 1.96-0.14 3.75-0.28 5.75-0.36 3.88 0.05 7.54 0.05 11.2 0.05q0.08-0.3 0.16-0.6c-2.04-0.97-4.08-1.93-6.16-3.1-0.02-1.21-0.01-2.2 0-3.2zm6.42 35.17q0.08 0.04 0.17 0.07c-0.08-0.07-0.16-0.13-0.17-0.56-1.32-3.08-2.77-6.01-7.15-5.59-0.2 0.41-0.5 1.04-1.01 2.09 2.83 1.32 5.48 2.57 8.16 3.99zm-44.08-24.94c-0.07 0.17-0.13 0.34-0.13 0.86 1.81 3.07 3.57 6.17 5.45 9.2 0.79 1.27 1.91 1.75 2.9 0.15 0.82-1.32 1.51-2.72 2.34-4.25-3.63-1.99-7.04-3.87-10.56-5.96zm26.07 39.4q8.32-4.6 16.64-9.19c-3.71-0.53-7.2-0.62-10.69-0.47-0.79 0.03-1.87 0.67-2.27 1.36-1.56 2.62-2.9 5.37-4.52 8.21 0.16 0.06 0.33 0.12 0.84 0.09zm-17.96-15.33q-3.3 1.88-6.53 3.73c0.17 0.4 0.2 0.53 0.23 0.53q3.24 0.06 6.48 0.11c4.72 0.09 4.72 0.09 3.87-4.74 0.77 0.83 1.32 1.18 1.51 1.66 1 2.58 3.53 2.38 5.54 3.02 0.41 0.13 1.67-0.78 1.69-1.25 0.15-3.43 0.08-6.86 0.08-10.75-4.46 2.66-8.5 5.08-12.87 7.69zm-10.05-16.02q0 8.51 0 17.02 0.34 0.07 0.69 0.14c1.83-3.01 3.91-5.91 5.4-9.09 0.71-1.49 0.96-3.83 0.27-5.22-1.68-3.42-4.03-6.5-6.35-10.1 0 2.6 0 4.67-0.01 7.25zm36.4 0.61c-0.48-0.66-0.95-1.32-1.56-2.16-3.27 2.14-7.33 3.04-8.29 7.7 3.24 1.92 6.56 3.88 9.82 5.8 3.22-3.87 2.93-7.44 0.03-11.34zm12.33 14.6c0-7.03 0-14.06 0-21.77-2.47 4.38-4.59 8.13-6.75 11.94 2.46 1.11 4.12 2.35 2.64 5.08-0.16 0.29-0.11 0.85 0.07 1.14 1.18 1.86 2.42 3.67 4.04 6.1 0-1.16 0-1.61 0-2.49zm-26.24-9.3c-1.12-4.52-5.38-5.25-8.97-7.61-0.84 1.92-1.81 3.54-2.23 5.3-0.33 1.38-0.09 2.94 0.13 4.39 0.15 1 0.61 1.99 1.13 2.87 0.14 0.24 1.1 0.25 1.5 0.03 2.76-1.51 5.48-3.11 8.44-4.98zm7.28 4.78c-1.25-0.72-2.49-1.45-4.24-2.46 0 4.09-0.02 7.62 0.02 11.15 0 0.37 0.22 0.84 0.49 1.07 1.03 0.87 5.66 0.2 6.39-1 1.02-1.67 1.88-3.45 2.87-5.31-1.86-1.18-3.53-2.23-5.53-3.45zm17.06-16.87c0.19-0.48 0.38-0.96 0.84-2.1-4 2.06-7.39 3.79-10.74 5.58-0.3 0.16-0.63 0.93-0.5 1.17 1.2 2.19 2.5 4.33 4.01 6.89 2.27-4.11 4.23-7.67 6.39-11.54zm-31.96 34.24q3.15 1.75 6.29 3.49 0.35-0.39 0.69-0.78c-1.51-1.86-2.69-4.31-4.63-5.4-1.72-0.97-3.3-1.53-3.47-3.55-3.34 0-6.47 0-9.6 0q-0.05 0.24-0.1 0.48c3.5 1.86 7 3.71 10.82 5.76zm-7.34-35.6c2 1.11 4.01 2.23 6.08 3.39 0.81-1.35 1.7-2.4 2.07-3.61 0.2-0.66-0.46-2.26-0.77-2.28-3.87-0.16-7.74-0.1-12.08-0.1 1.78 0.98 3.08 1.69 4.7 2.6zm35.49-2.77q-3.6 0.01-7.2-0.01c-2.52-0.02-3.28 0.86-2.62 3.32 0.27 1.03 0.91 1.97 1.44 3.04 3.79-2.13 7.19-4.05 10.59-5.97q-0.07-0.19-0.13-0.39c-0.54 0-1.09 0-2.08 0.01zm-4.02 26.3c-0.8-0.4-1.6-0.8-2.64-1.32-0.91 1.88-1.76 3.61-2.68 5.49 4.32 0 8.21 0 12.71 0-2.75-1.55-4.91-2.77-7.39-4.17zm-33.47-4.43q-1.79 2.96-3.58 5.92 0.22 0.2 0.44 0.39c3.06-1.86 6.12-3.73 9.85-6.02-1.67-1.22-2.75-2.42-4.04-2.75-0.61-0.16-1.65 1.38-2.67 2.46zm22.43 16.38c0.97-1.97 1.93-3.94 2.97-6.05-1.71 0-3.23 0-4.84 0 0 2.97 0 5.81 0 8.66q0.2 0.04 0.41 0.08c0.43-0.78 0.87-1.56 1.46-2.69zm-6.17 1.22q0.42 0.85 0.85 1.69c0.39-2.61 0.44-5 0.35-7.38-0.02-0.54-0.41-1.25-0.86-1.54-0.36-0.24-1.44-0.11-1.54 0.13-0.42 1.05-0.96 2.26-0.77 3.28 0.23 1.24 1.16 2.34 1.97 3.82zm-21.74-7.51c-0.24-0.84-0.42-1.71-0.79-2.49-0.07-0.14-1.29-0.03-1.45 0.26-0.31 0.56-0.55 1.74-0.29 1.93 0.59 0.43 1.51 0.42 2.53 0.3zm41.65-11.55q1.07-0.84 2.13-1.68c-0.48-0.52-0.87-1.25-1.46-1.49-0.42-0.17-1.59 0.34-1.58 0.53 0.02 0.85 0.34 1.69 0.91 2.64zm6.74-20.71q1.13 0.6 2.26 1.2c0.26-0.65 0.8-1.35 0.7-1.94-0.09-0.53-0.88-0.95-1.35-1.43-0.54 0.59-1.08 1.18-1.61 2.17zm-49.66-2.18c-0.58 0.54-1.38 0.99-1.64 1.66-0.13 0.33 0.66 1.2 1.2 1.53 0.31 0.18 1.42-0.29 1.41-0.4-0.09-0.92-0.35-1.82-0.97-2.79zm50.14 32.29c0.12 0.87 0.18 1.77 0.44 2.6 0.03 0.1 1.42 0.08 1.68-0.26 0.37-0.51 0.63-1.69 0.34-1.97-0.49-0.47-1.45-0.46-2.46-0.37zm-33.17 4.01q1.42-0.71 2.84-1.42c-0.37-0.5-0.67-1.12-1.15-1.48-0.32-0.25-1.31-0.25-1.34-0.16-0.27 0.88-0.41 1.81-0.35 3.06zm7.19 11.44q1.27 0.35 2.55 0.7c0.14-0.6 0.54-1.29 0.37-1.78-0.17-0.48-1.16-1.15-1.37-1.03-0.64 0.38-1.09 1.1-1.55 2.11zm0.31-31.22q1.22 0.12 2.45 0.24c0.02-0.69 0.26-1.49-0.01-2.04-0.2-0.42-1.44-0.83-1.54-0.71-0.5 0.61-0.76 1.41-0.9 2.51z"/>
	<path class="s1" d="m161.84 35.62c0.7 0.41 1.56 0.81 1.57 1.21 0.07 12.15 0.06 24.29 0.06 36.55-2.62 0-5.08 0-7.79 0q0-11.68 0-23.3-0.27-0.08-0.55-0.17c-1.52 2.89-3.07 5.77-4.57 8.67q-2.24 4.32-4.42 8.67c-0.57 1.14-1.01 2.2-2.7 1.99-1.55-0.19-2.92 0.03-3.85-1.86-2.93-5.95-6.13-11.77-9.48-18.14 0 8.31 0 16.12 0 24.08-2.69 0-5.13 0-7.66 0 0-12.54 0-25 0-37.68 2.43 0 4.76-0.12 7.05 0.07 0.68 0.06 1.51 0.89 1.88 1.57 3.19 5.91 6.28 11.88 9.41 17.82 0.58 1.1 1.22 2.17 2.13 3.78 1.94-3.84 3.67-7.34 5.46-10.8q3.02-5.9 6.19-11.71c0.22-0.39 1-0.63 1.54-0.66 1.83-0.1 3.66-0.07 5.73-0.09z"/>
	<path class="s2" d="m68.27 52.94c-0.13-1.07-0.25-2.14-0.53-3.33-0.16-1.19-0.16-2.26-0.16-3.76 2.23-0.11 4.41-0.22 6.72-0.33 0.11-0.94 0.22-1.83 0.37-3.02 2.1 0 4.22 0 6.63 0 0-4.58 0-8.87 0-13.28 1.04-0.2 1.8-0.34 2.63-0.5 0.07-0.99 0.14-1.89 0.22-2.96 0.97-0.15 1.92-0.29 3.21-0.49 0-2.23-0.19-4.48 0.08-6.68 0.12-0.94 1.24-1.72 1.81-2.64 0.67-1.08 1.24-2.22 2.08-3.76 1.21-0.17 3.31-0.26 2.49-3.2 5.46 0 10.6 0 16.01 0 0 4.04 0 8.06 0 12.24q-1.16 0.14-2.66 0.32c-0.07 0.95-0.14 1.83-0.22 2.84-0.81 0.07-1.61 0.15-2.62 0.24-0.13 0.94-0.25 1.88-0.39 2.96-0.83 0.09-1.62 0.18-2.56 0.27-0.12 0.85-0.23 1.65-0.37 2.63-3.5 0-7.03 0-10.69 0-0.11-0.88-0.23-1.77-0.36-2.77-0.69 0-1.38 0-2.3 0q0 3.76 0 7.25c-3.31 0.81-3.45 1.22-2.74 7.53 1.82 0 3.7 0.01 5.58-0.01 1.23-0.01 2.08 0.24 2.09 1.79 0.01 0.46 0.77 1.2 1.29 1.32 1.44 0.33 2.94 0.4 4.4 0.57-0.09 1-0.18 1.95-0.21 3.11 0.04 1.2 0.03 2.19-0.16 3.53-1.81 0.35-3.45 0.35-5.2 0.35 0 1.19 0 2.15 0 3.12-1.79 0.13-3.58 0.27-5.54 0.41 0.35 0.64 0.61 1.1 0.81 1.9-1.13 0.57-2.21 0.79-3.18 0.89 0.6-0.56 1.1-0.99 1.61-1.43-0.53-0.48-1.1-1.41-1.59-1.37-2.44 0.21-4.86 0.66-7.28 1.03-1.22-0.46-2.44-0.93-3.78-1.75-0.18-1.14-0.23-1.92-0.28-2.72-1.93-0.11-3.57-0.21-5.21-0.3z"/>
	<path class="s1" d="m299.51 44.3c1.23 0 2.22 0 3.35 0 0.16 1.07 0.3 2.02 0.5 3.39 3.83-3.88 8.35-4.25 13.03-3.15 3.11 0.73 5.69 2.52 7.61 5.2 4.2 5.86 3.56 15.27-1.46 20.33-4.91 4.95-11.88 5.11-18.68 0.24 0 4.57 0 8.99 0 13.54-2.79 0-5.34 0-8.08 0 0-13.04 0-26.14 0-39.55 1.21 0 2.35 0 3.73 0zm8 7.24c-3.55 2.13-4.43 5.45-3.83 9.23 0.51 3.18 2.29 5.49 5.58 6.3 3.01 0.74 6.25-0.5 7.87-2.96 1.96-2.96 1.85-7.74-0.24-10.59-1.87-2.55-5.18-3.33-9.38-1.98z"/>
	<path class="s1" d="m241.62 45.26c1.16 0.79 2.15 1.48 3.34 2.31 0-4.89 0-9.5 0-14.29 2.64 0 5.18 0 7.88 0 0 13.31 0 26.58 0 40.03-2.35 0-4.7 0-7.2 0-0.07-0.98-0.14-1.92-0.22-2.95-7.8 4.81-14.28 4.67-19.16-0.19-5.01-4.99-5.43-14.36-2.64-19.02 4.23-7.04 10.92-8.6 18-5.89zm0.09 20.77c0.54-0.51 1.16-0.96 1.6-1.55 3.58-4.64 1.34-12.36-3.88-13.51-3.45-0.75-6.52 0.52-8.14 3.39-1.96 3.44-1.47 7.94 1.15 10.66 2.26 2.34 5.64 2.8 9.27 1.01z"/>
	<path class="s1" d="m267.1 55.91c-8.09-2.77-8.64-11.94-2.89-17.47 1.49-1.43 4.03-2 6.2-2.45 6.27-1.28 12.26-0.19 18.28 2.61-0.83 2.3-1.6 4.41-2.19 6.04-4.05-0.78-7.84-1.54-11.64-2.2-0.8-0.14-1.68 0.01-2.48 0.19-1.74 0.39-3.14 1.29-3.28 3.25-0.14 1.9 0.86 3.2 2.62 3.79 1.97 0.66 3.99 1.17 5.98 1.78 1.98 0.61 3.98 1.19 5.93 1.92 9.01 3.36 7.36 13.79 2.29 17.58-6.47 4.84-20.59 3.85-26.4-2.09 0.75-1.93 1.51-3.91 2.38-6.13 4.07 2.67 8.17 4.7 12.94 4.4 1.62-0.11 3.37-0.33 4.79-1.04 2.56-1.26 2.74-4.33 0.33-5.83-1.65-1.03-3.65-1.54-5.53-2.16-2.36-0.77-4.77-1.42-7.33-2.19z"/>
	<path class="s1" d="m369.45 74.02c-13.19-0.77-19.62-11.38-13.85-22.93 1.07-2.15 3.28-4.12 5.45-5.24 5.75-2.95 11.88-2.52 17.36 0.53 6.36 3.54 8.31 14.06 4.39 20.33-3.05 4.87-7.52 7.07-13.35 7.31zm-2.96-22.97c-5.83 2.14-5.76 10.74-2.52 13.95 0.99 0.98 2.47 1.75 3.84 2 3.1 0.58 5.85-0.43 7.49-3.23 1.96-3.35 1.9-6.89-0.28-10.11-1.94-2.88-4.86-3.52-8.53-2.61z"/>
	<path class="s1" d="m215.38 49.76c0.46 2.26 1.1 4.34 1.15 6.44 0.15 5.65 0.05 11.3 0.05 17.13-2.66 0-5.2 0-8.09 0 0-2.49 0.01-5.11 0-7.73-0.01-2.66 0.03-5.33-0.06-7.99-0.14-4.19-2.03-6.29-5.71-6.48-3.75-0.2-6.63 2.05-6.9 6-0.32 4.47-0.12 8.98-0.15 13.47 0 0.9 0 1.8 0 2.79-2.76 0-5.31 0-8.03 0 0-9.67 0-19.26 0-28.99 2.38 0 4.68 0 7.28 0 0.15 1.03 0.33 2.2 0.51 3.46 8-5.76 15.81-5.04 19.95 1.9z"/>
	<path class="s1" d="m402.82 66.8c4.62 0.03 7.67-2.66 7.81-7.01 0.17-5.06 0.04-10.13 0.04-15.35 2.82 0 5.36 0 8.1 0 0 9.6 0 19.13 0 28.88q-3.52 0-7.27 0c-0.12-1.03-0.24-2.08-0.41-3.52-3.86 3.63-8.03 5.06-12.94 3.71-5.41-1.49-7.97-5.12-7.99-10.76-0.02-5.46-0.32-10.92-0.62-16.37-0.1-1.91 0.6-2.56 2.44-2.39 1.96 0.18 3.94 0.22 6.08 0.33 0 5.26-0.05 10.41 0.01 15.56 0.05 3.9 1.38 5.79 4.75 6.92z"/>
	<path class="s1" d="m438 73.99c-7.2-0.41-9.98-3.22-10.09-10.12-0.07-4.15-0.01-8.3-0.01-12.69-1.45 0-2.81 0-4.35 0 0-2.1 0-3.96 0-6.03 1.37 0 2.67 0 4.24 0 0-2.64 0-5.09 0-7.69 2.82 0 5.35 0 8.09 0 0 2.48 0 4.95 0 7.71 2.54 0 4.9 0 7.4 0 0 2.07 0 3.86 0 5.8-2.43 0-4.73 0-7.26 0 0 4.69-0.16 9.23 0.07 13.75 0.11 2.27 1.55 2.97 3.75 2.41 3.4-0.85 3.4-0.85 4.15 2.69 0.17 0.8 0.32 1.6 0.56 2.88-2.18 0.45-4.25 0.87-6.55 1.29z"/>
	<path class="s2" d="m81.17 18.83c0 3.43 0 6.65 0 9.98-1.1 0.09-1.91 0.15-2.9 0.23-0.1 0.96-0.19 1.9-0.3 3-3.5 0-6.95 0-10.62 0-0.11-0.95-0.2-1.83-0.32-2.87-0.72-0.15-1.49-0.31-2.41-0.49-0.11-0.96-0.21-1.91-0.33-2.97-0.91-0.08-1.71-0.14-2.66-0.22-0.11-0.81-0.23-1.6-0.36-2.48-1.21-0.08-2.34-0.15-3.79-0.23 0.2-3.73 0.4-7.34 0.61-11.18 5.46 0 10.87 0 16.37 0 0.15 0.89 0.28 1.7 0.45 2.66 0.87 0.11 1.74 0.22 2.84 0.36 0.13 0.96 0.26 1.99 0.36 2.74 1.16 0.47 2.11 0.86 3.06 1.47z"/>
	<path class="s1" d="m332.6 71.86c0-9.21 0-18.2 0-27.41 2.51 0 4.85 0 7.36 0 0.11 1.14 0.23 2.33 0.38 3.91 2.79-2.67 5.49-4.83 9.67-4.21q0 3.31 0 6.76c-8.28 1.06-9.4 2.35-9.43 11.11-0.01 3.74 0 7.48 0 11.45-2.36 0-4.59 0.07-6.8-0.06-0.42-0.03-0.79-0.85-1.18-1.55z"/>
	<path class="s1" d="m173.06 73.49c-0.56-0.44-1.16-0.89-1.16-1.33-0.06-9.16-0.05-18.31-0.05-27.67 2.63 0 5.16 0 7.9 0 0 9.53 0 19.12 0 29-2.17 0-4.31 0-6.69 0z"/>
	<path class="s2" d="m287.36 92.71c0.01-2.12 0.01-4.01 0.01-6.2 3.87 0 7.42-0.05 10.97 0.07 0.5 0.02 0.96 0.92 1.45 1.41q-0.23 0.34-0.45 0.67c-3.04 0-6.08 0-9.32 0 0 1.69 0 3.13 0 4.68 2.65 0.27 5.29 0.54 7.93 0.86 0.04 0.01 0 0.73 0 1.36-1.91 0-3.74 0.14-5.54-0.03-2.17-0.22-2.81 0.73-2.6 2.7 0.09 0.89 0.01 1.79 0.01 2.94 2.91 0 5.54-0.07 8.16 0.06 0.69 0.03 1.34 0.73 2.01 1.13q-0.19 0.36-0.39 0.73c-3.97 0-7.93 0-12.25 0 0-3.41 0-6.77 0.01-10.38z"/>
	<path class="s2" d="m268.4 99.95c-0.32 0.71-0.47 1.31-0.83 1.74-0.46 0.53-1.05 1.2-1.65 1.27-0.4 0.06-1.12-0.75-1.35-1.31-0.97-2.43-1.82-4.92-2.71-7.39q-0.35-0.03-0.69-0.06c-0.95 2.42-1.84 4.86-2.86 7.25-0.28 0.65-1.04 1.63-1.43 1.57-0.71-0.12-1.62-0.78-1.89-1.44-1.49-3.59-2.81-7.25-4.18-10.88q0.32-0.31 0.64-0.61c0.63 0.53 1.54 0.95 1.84 1.63 1.14 2.65 2.1 5.39 3.37 8.76 1.21-3.19 2.13-5.79 3.21-8.33 0.3-0.7 1.09-1.19 1.65-1.78 0.51 0.56 1.23 1.04 1.5 1.7 1.03 2.52 1.93 5.11 2.95 7.86 2.63-2.91 1.53-7.78 5.19-9.77q0.34 0.18 0.69 0.36c-1.13 3.08-2.25 6.16-3.45 9.43z"/>
	<path class="s2" d="m329.04 98.9c-1.93 4.53-4.79 5.43-9.75 3.28-1.71 1.3 1.48 4.97-2.66 5.4 0-5.85 0-11.46 0-17.78 1.15 0.8 1.88 1.32 2.74 1.92 2.58-1.86 5.38-1.91 8.04 0.24 2.21 1.79 2.57 4.13 1.63 6.94zm-10.08-0.44c0.41 0.61 0.71 1.34 1.24 1.79 1.78 1.48 4.77 1.18 6.05-0.5 1.53-2.02 1.11-5.33-0.85-6.72-1.93-1.36-4.74-0.92-5.84 1.2-0.56 1.09-0.47 2.53-0.6 4.23z"/>
	<path class="s2" d="m222.4 95.11c0.32 1.94 0.52 3.83 0.48 5.7-0.01 0.52-0.62 1.24-1.14 1.49-5.27 2.48-12.91 0.56-13.41-6.79-0.24-3.6 1.06-6.38 4.3-8.05 3.72-1.92 7.22-1.32 10.59 1.25-0.67 1.5-1.42 1.65-2.86 0.83-2.41-1.39-4.97-1.38-7.27 0.37-2.06 1.56-2.7 3.75-2.26 6.23 0.69 3.88 5.42 6.42 8.91 4.59 0.73-0.39 0.81-2.05 1.17-3.13 0.3-0.92-0.86-2.55 1.49-2.49z"/>
	<path class="s2" d="m124.5 103.19c-0.54-0.35-1.2-0.7-1.2-1.05-0.07-5.15-0.05-10.29-0.05-15.66 3.71 0 7.19-0.05 10.66 0.07 0.46 0.02 0.88 0.99 1.32 1.52q-0.26 0.3-0.52 0.61c-2.07 0-4.15 0.12-6.22-0.03-2.14-0.16-3.14 0.53-2.82 2.78 0.1 0.73 0.02 1.48 0.02 2.11 2.65 1.72 6.24-1 8.44 1.64q-0.06 0.45-0.12 0.89c-2.69 0.17-5.38 0.34-8.22 0.51 0 1.71 0.1 3.28-0.05 4.82-0.06 0.62-0.68 1.19-1.24 1.79z"/>
	<path class="s2" d="m176.51 95.43c0-1.73 0-3.22 0-4.75 1.29-0.46 2.42-0.95 2.42 1.1-0.02 3.64-0.01 7.29-0.01 11.53-1.2-0.42-2.06-0.73-3.44-1.21-0.16 0.08-0.94 0.58-1.79 0.85-3.97 1.28-6.52-0.83-7.13-4.88-0.36-2.35-0.07-4.8-0.07-7.45 0.89-0.05 1.65-0.09 2.68-0.15 0 2.23-0.03 4.21 0.01 6.2 0.06 3 1.27 4.55 3.45 4.54 1.86 0 4.41-1.98 3.88-4.55-0.06-0.32 0-0.67 0-1.23z"/>
	<path class="s2" d="m136.5 96.54c1.08-4.25 3.28-6.16 6.83-6.11 3.21 0.04 5.62 1.82 6.27 4.64 0.72 3.13-0.55 6.23-3.06 7.49-2.67 1.34-6.9 0.75-8.47-1.5-0.85-1.21-1.07-2.86-1.57-4.52zm2.9-1.28c-0.6 2.98 0.43 5.19 2.71 5.8 2.21 0.6 4.34-0.4 5.11-2.41 0.82-2.11-0.09-4.81-1.98-5.85-2.22-1.23-4-0.58-5.84 2.46z"/>
	<path class="s2" d="m244.91 102.97c-3.97 0.67-6.54-0.41-7.76-3.13-1.26-2.79-0.68-6.24 1.42-7.98 2.04-1.69 4.34-1.87 6.8-1.05 2.66 0.89 3.86 3.1 4.52 5.5 0.54 1.95-2.18 5.38-4.98 6.66zm0.28-2.34c0.47-0.46 1.1-0.83 1.37-1.39 0.93-1.92 0.98-3.88-0.45-5.59-1.26-1.51-2.96-1.76-4.75-1.07-1.97 0.76-2.68 2.42-2.7 4.36-0.04 3.23 2.26 4.64 6.53 3.69z"/>
	<path class="s2" d="m344.72 90.42c3.11-0.14 5.34 0.94 6.6 3.69 1.09 2.38 1.04 4.73-0.6 6.8-1.71 2.17-4.1 2.7-6.73 2.15-3.05-0.63-4.94-3.18-4.94-6.57-0.01-3.09 2.04-5.35 5.67-6.07zm4.72 4.5c-1.47-2.52-3.53-3.34-5.71-2.27-2 0.97-2.95 3.66-2.11 6.03 0.7 1.98 2.76 2.93 5.11 2.35 2.35-0.58 3.35-2.62 2.71-6.11z"/>
	<path class="s2" d="m370.71 101.26c1.8-0.21 3.4-0.44 5.43-0.74-2.19 2.82-5.88 3.46-8.58 1.92-2.76-1.58-3.79-5.55-2.34-9.03 0.91-2.17 4.28-3.5 7.1-2.81 3.23 0.78 4.84 3.19 4.42 6.96-3.17 0-6.38 0-9.72 0-0.01 2.67 1.67 3.25 3.69 3.7zm0.52-5.27c1.11 0 2.22 0 3.51 0-0.49-2.79-1.94-4.01-4.18-3.88-2.09 0.12-3.43 1.37-3.62 3.88 1.37 0 2.59 0 4.29 0z"/>
	<path class="s1" d="m177.56 40.1c-4.36 0.72-6.9-1.38-6.49-5.23 0.22-2.12 1.46-3.25 3.63-3.36 3.34-0.17 5.32 0.83 5.78 2.95 0.69 3.11 0.15 4.21-2.92 5.64z"/>
	<path class="s2" d="m186.73 97.75c-3.25-0.79-4.35-1.89-4.09-3.95 0.28-2.22 2.09-3.56 4.97-3.43 1.46 0.07 2.89 0.47 4.34 0.72q0.1 0.46 0.2 0.91c-0.61 0.22-1.22 0.59-1.84 0.61-1.31 0.04-2.64-0.26-3.93-0.11-0.54 0.06-1.31 0.85-1.4 1.41-0.07 0.42 0.67 1.23 1.22 1.45 1.14 0.47 2.39 0.67 3.6 0.96 1.62 0.38 3 1.32 2.62 3.02-0.28 1.27-1.28 2.94-2.37 3.35-2.56 0.97-5.3 0.73-7.92-0.66q0.45-1.07 0.71-1.7c1.78 0.32 3.4 0.82 5.02 0.81 0.88-0.01 1.74-0.89 2.62-1.38-0.78-0.59-1.52-1.24-2.33-1.76-0.32-0.21-0.81-0.15-1.42-0.25z"/>
	<path class="s2" d="m303.82 99.79c0.81-1.16 1.51-2.18 2.23-3.23-1.35-1.98-2.65-3.89-3.94-5.8q0.18-0.3 0.36-0.59c0.92 0.55 1.94 0.99 2.73 1.68 0.92 0.8 1.64 1.82 2.43 2.73 1.9-1.41 2.25-4.48 5.54-3.86-1.38 1.92-2.76 3.84-4.23 5.88 1.56 2.1 3.09 4.15 4.71 6.34-3.82 1.03-3.56-3.51-5.98-4.34-2.18 1-2.27 4.92-6.2 4.51 0.87-1.23 1.56-2.2 2.35-3.32z"/>
	<path class="s2" d="m152.54 94.62c2.49-5.2 8.01-5.86 11.53-1.02-1.08 0-1.94 0.26-2.51-0.04-2.77-1.46-4.57-1.45-6.08 0.26-1.36 1.55-1.37 4.37-0.01 6.02 1.42 1.74 3.84 1.89 6.35 0.41q0.52-0.32 1.02-0.66 0.36 0.19 0.71 0.37c-0.35 0.71-0.52 1.63-1.08 2.09-2.03 1.69-5.43 1.76-7.72 0.12-2.56-1.83-2.95-4.47-2.21-7.55z"/>
	<path class="s2" d="m228.06 101.46c-0.01-3.22-0.04-6.22 0-9.22 0.01-0.58 0.35-1.15 0.54-1.73q0.99 0.33 2.05 0.68c1.1-0.35 2.38-0.74 3.95-1.23 0 1.12 0 1.81 0 2.44-7.24 1.05-3.16 6.84-4.79 10.51-0.82 0.25-1.84 0.63-1.75-1.45z"/>
	<path class="s2" d="m335.61 89.02c0 4.73 0 9.21 0 13.71-1.69 0.68-2.3 0.18-2.27-1.57q0.1-6.98 0.05-13.96c-0.01-1.45 0.35-2.25 2.23-1.55 0 1.01 0 2.07-0.01 3.37z"/>
	<path class="s2" d="m358.05 100.46c-0.03 1.48 0.44 3.14-2.25 2.31 0-3.58-0.04-7.22 0.03-10.87 0.01-0.51 0.55-1.44 0.8-1.42 0.58 0.03 1.13 0.52 1.75 0.86 1.11-0.35 2.48-0.77 3.84-1.2q0.31 0.33 0.62 0.65c-0.4 0.58-0.72 1.59-1.19 1.67-2.84 0.43-3.7 2.19-3.62 4.76 0.03 1 0.01 2 0.02 3.24z"/>
	<path class="s2" d="m379.12 101.51c0.53-0.58 1.01-1.27 1.55-1.31 0.58-0.04 1.51 0.39 1.72 0.86 0.22 0.5-0.06 1.46-0.46 1.9-0.28 0.3-1.22 0.25-1.72 0.03-0.47-0.21-0.75-0.85-1.09-1.48z"/>
	<path class="s2" d="m197.7 102.94c-1.19-0.19-2.21-0.46-3.22-0.74q0-0.61 0.01-1.22 1.57-0.36 3.14-0.72c0.08 0.86 0.16 1.72 0.07 2.68z"/>
	<path class="s2" d="m273.11 102.02c0.58-0.8 1.18-1.42 1.87-1.93 0.06-0.05 0.93 0.64 1.01 1.07 0.1 0.55-0.22 1.17-0.36 1.76-0.83-0.23-1.66-0.47-2.52-0.9z"/>
	<path class="s3" d="m68.73 83.68c4.21-2.51 8.25-4.93 12.71-7.59 0 3.89 0.07 7.32-0.08 10.75-0.02 0.47-1.28 1.38-1.69 1.25-2.01-0.64-4.54-0.44-5.54-3.02-0.19-0.48-0.74-0.83-1.51-1.66 0.85 4.83 0.85 4.83-3.87 4.74q-3.24-0.05-6.48-0.11c-0.03 0-0.06-0.13-0.23-0.53 2.15-1.23 4.34-2.48 6.69-3.83z"/>
	<path class="s3" d="m58.52 67.51c0.01-2.33 0.01-4.4 0.01-7 2.32 3.6 4.67 6.68 6.35 10.1 0.69 1.39 0.44 3.73-0.27 5.22-1.49 3.18-3.57 6.08-5.4 9.09q-0.35-0.07-0.69-0.14c0-5.67 0-11.35 0-17.27z"/>
	<path class="s3" d="m95.01 68.53c2.81 3.74 3.1 7.31-0.12 11.18-3.26-1.92-6.58-3.88-9.82-5.8 0.96-4.66 5.02-5.56 8.29-7.7 0.61 0.84 1.08 1.5 1.65 2.32z"/>
	<path class="s3" d="m107.25 83.18c0 0.67 0 1.12 0 2.28-1.62-2.43-2.86-4.24-4.04-6.1-0.18-0.29-0.23-0.85-0.07-1.14 1.48-2.73-0.18-3.97-2.64-5.08 2.16-3.81 4.28-7.56 6.75-11.94 0 7.71 0 14.74 0 21.98z"/>
	<path class="s3" d="m80.89 73.82c-2.84 1.72-5.56 3.32-8.32 4.83-0.4 0.22-1.36 0.21-1.5-0.03-0.52-0.88-0.98-1.87-1.13-2.87-0.22-1.45-0.46-3.01-0.13-4.39 0.42-1.76 1.39-3.38 2.23-5.3 3.59 2.36 7.85 3.09 8.85 7.76z"/>
	<path class="s3" d="m88.45 78.53c1.84 1.14 3.51 2.19 5.37 3.37-0.99 1.86-1.85 3.64-2.87 5.31-0.73 1.2-5.36 1.87-6.39 1-0.27-0.23-0.49-0.7-0.49-1.07-0.04-3.53-0.02-7.06-0.02-11.15 1.75 1.01 2.99 1.74 4.4 2.54z"/>
	<path class="s3" d="m85.88 98.89c1.43-2.71 2.77-5.46 4.33-8.08 0.4-0.69 1.48-1.33 2.27-1.36 3.49-0.15 6.98-0.06 10.69 0.47-5.55 3.06-11.09 6.12-16.89 9.15-0.24-0.03-0.4-0.18-0.4-0.18z"/>
	<path class="s3" d="m105.25 61.73c-2.06 3.72-4.02 7.28-6.29 11.39-1.51-2.56-2.81-4.7-4.01-6.89-0.13-0.24 0.2-1.01 0.5-1.17 3.35-1.79 6.74-3.52 10.74-5.58-0.46 1.14-0.65 1.62-0.94 2.25z"/>
	<path class="s3" d="m73.23 95.72c-3.66-1.95-7.16-3.8-10.66-5.66q0.05-0.24 0.1-0.48c3.13 0 6.26 0 9.6 0 0.17 2.02 1.75 2.58 3.47 3.55 1.94 1.09 3.12 3.54 4.63 5.4q-0.34 0.39-0.69 0.78c-2.1-1.16-4.19-2.33-6.45-3.59z"/>
	<path class="s3" d="m60.57 59.92c3.41 1.88 6.82 3.76 10.45 5.75-0.83 1.53-1.52 2.93-2.34 4.25-0.99 1.6-2.11 1.12-2.9-0.15-1.88-3.03-3.64-6.13-5.4-9.45 0.04-0.25 0.19-0.4 0.19-0.4z"/>
	<path class="s3" d="m84.7 59.61c1.07-0.23 2.15-0.45 3.31-0.83 1.48 1.61 2.86 3.37 4.38 5.32-2.1 1.15-3.85 2.06-5.55 3.04-1.67 0.97-2.52 0.42-2.63-1.39-0.11-1.81-0.1-3.64-0.04-5.77 0.25-0.33 0.39-0.35 0.53-0.37z"/>
	<path class="s3" d="m81.54 60.07c-0.04 1.81-0.11 3.63-0.11 5.44 0.01 1.75-0.58 2.62-2.39 1.72-1.52-0.77-3.05-1.55-4.45-2.51-0.36-0.25-0.54-1.46-0.27-1.8 1.13-1.43 2.47-2.68 3.87-4.18 1.21 0.32 2.28 0.82 3.35 1.33z"/>
	<path class="s3" d="m65.89 60.12c-1.46-0.81-2.76-1.52-4.54-2.5 4.34 0 8.21-0.06 12.08 0.1 0.31 0.02 0.97 1.62 0.77 2.28-0.37 1.21-1.26 2.26-2.07 3.61-2.07-1.16-4.08-2.28-6.24-3.49z"/>
	<path class="s3" d="m101.76 57.44c0.77 0 1.32 0 1.86 0q0.06 0.2 0.13 0.39c-3.4 1.92-6.8 3.84-10.59 5.97-0.53-1.07-1.17-2.01-1.44-3.04-0.66-2.46 0.1-3.34 2.62-3.32 2.4 0.02 4.8 0.01 7.42 0z"/>
	<path class="s3" d="m97.67 83.84c2.33 1.31 4.49 2.53 7.24 4.08-4.5 0-8.39 0-12.71 0 0.92-1.88 1.77-3.61 2.68-5.49 1.04 0.52 1.84 0.92 2.79 1.41z"/>
	<path class="s3" d="m64.14 79.16c0.93-0.92 1.97-2.46 2.58-2.3 1.29 0.33 2.37 1.53 4.04 2.75-3.73 2.29-6.79 4.16-9.85 6.02q-0.22-0.19-0.44-0.39c1.19-1.97 2.39-3.94 3.67-6.08z"/>
	<path class="s3" d="m92.92 56.33c-0.21-1.02-0.21-1.98-0.21-3.17 1.75 0 3.39 0 5.23-0.14 2.26 0.83 4.3 1.79 6.34 2.76q-0.08 0.3-0.16 0.6c-3.66 0-7.32 0-11.2-0.05z"/>
	<path class="s3" d="m68.06 52.97c1.85 0.06 3.49 0.16 5.42 0.27 0.05 0.8 0.1 1.58 0.15 2.59-3.98 0.22-7.96 0.22-11.94 0.22q-0.09-0.15-0.19-0.31c2.12-0.91 4.23-1.83 6.56-2.77z"/>
	<path class="s1" d="m81.73 59.98c-1.26-0.42-2.33-0.92-3.6-1.42-0.32-0.2-0.44-0.4-0.58-0.73 2.41-0.49 4.83-0.94 7.27-1.15 0.49-0.04 1.06 0.89 1.59 1.37-0.51 0.44-1.01 0.87-1.61 1.43-0.24 0.15-0.38 0.17-0.71 0.27-0.86 0.1-1.52 0.12-2.36 0.23z"/>
	<path class="s3" d="m86.4 95.87c-0.51 0.96-0.95 1.74-1.38 2.52q-0.21-0.04-0.41-0.08c0-2.85 0-5.69 0-8.66 1.61 0 3.13 0 4.84 0-1.04 2.11-2 4.08-3.05 6.22z"/>
	<path class="s3" d="m104.52 84.48c-2.66-1.25-5.31-2.5-8.14-3.82 0.51-1.05 0.81-1.68 1.01-2.09 4.38-0.42 5.83 2.51 7.13 5.76-0.02 0.17 0 0.15 0 0.15z"/>
	<path class="s3" d="m80.22 96.76c-0.72-1.32-1.65-2.42-1.88-3.66-0.19-1.02 0.35-2.23 0.77-3.28 0.1-0.24 1.18-0.37 1.54-0.13 0.45 0.29 0.84 1 0.86 1.54 0.09 2.38 0.04 4.77-0.35 7.38-0.29-0.56-0.57-1.13-0.94-1.85z"/>
	<path class="s3" d="m58.45 89.56c-0.9-0.03-1.82-0.02-2.41-0.45-0.26-0.19-0.02-1.37 0.29-1.93 0.16-0.29 1.38-0.4 1.45-0.26 0.37 0.78 0.55 1.65 0.67 2.64z"/>
	<path class="s3" d="m100.04 77.81c-0.39-0.9-0.71-1.74-0.73-2.59-0.01-0.19 1.16-0.7 1.58-0.53 0.59 0.24 0.98 0.97 1.46 1.49-0.71 0.56-1.42 1.12-2.31 1.63z"/>
	<path class="s3" d="m106.95 56.95c0.54-0.79 1.08-1.38 1.62-1.97 0.47 0.48 1.26 0.9 1.35 1.43 0.1 0.59-0.44 1.29-0.7 1.94-0.75-0.4-1.51-0.8-2.27-1.4z"/>
	<path class="s3" d="m57.5 55q0.63 1.39 0.77 2.76c0.01 0.11-1.1 0.58-1.41 0.4-0.54-0.33-1.33-1.2-1.2-1.53 0.26-0.67 1.06-1.12 1.84-1.63z"/>
	<path class="s3" d="m107.57 87.12c0.88 0.05 1.84 0.04 2.33 0.51 0.29 0.28 0.03 1.46-0.34 1.97-0.26 0.34-1.65 0.36-1.68 0.26-0.26-0.83-0.32-1.73-0.31-2.74z"/>
	<path class="s3" d="m74.15 91.11c0.06-1.09 0.2-2.02 0.47-2.9 0.03-0.09 1.02-0.09 1.34 0.16 0.48 0.36 0.78 0.98 1.15 1.48-0.95 0.48-1.9 0.95-2.96 1.26z"/>
	<path class="s3" d="m81.43 102.5c0.49-0.8 0.94-1.52 1.58-1.9 0.21-0.12 1.2 0.55 1.37 1.03 0.17 0.49-0.23 1.18-0.37 1.78-0.85-0.23-1.7-0.46-2.58-0.91z"/>
	<path class="s3" d="m81.67 71.31c0.24-0.92 0.5-1.72 1-2.33 0.1-0.12 1.34 0.29 1.54 0.71 0.27 0.55 0.03 1.35 0.01 2.04-0.82-0.08-1.64-0.16-2.55-0.42z"/>
	<path class="s3" d="m104.49 84.51q0.1 0.11 0.22 0.21c-0.06-0.02-0.11-0.05-0.18-0.15-0.01-0.09-0.03-0.07-0.04-0.06z"/>
	<path class="s3" d="m60.34 60.15c-0.01-0.1 0.05-0.27 0.18-0.33 0.05 0.1-0.1 0.25-0.18 0.33z"/>
	<path class="s3" d="m86.11 99.12c-0.09 0.02-0.26-0.04-0.32-0.17 0.09-0.06 0.25 0.09 0.32 0.17z"/>
	<path class="s3" d="m307.7 51.46c4.01-1.27 7.32-0.49 9.19 2.06 2.09 2.85 2.2 7.63 0.24 10.59-1.62 2.46-4.86 3.7-7.87 2.96-3.29-0.81-5.07-3.12-5.58-6.3-0.6-3.78 0.28-7.1 4.02-9.31z"/>
	<path class="s3" d="m241.55 66.14c-3.47 1.68-6.85 1.22-9.11-1.12-2.62-2.72-3.11-7.22-1.15-10.66 1.62-2.87 4.69-4.14 8.14-3.39 5.22 1.15 7.46 8.87 3.88 13.51-0.44 0.59-1.06 1.04-1.76 1.66z"/>
	<path class="s3" d="m366.68 51c3.48-0.86 6.4-0.22 8.34 2.66 2.18 3.22 2.24 6.76 0.28 10.11-1.64 2.8-4.39 3.81-7.49 3.23-1.37-0.25-2.85-1.02-3.84-2-3.24-3.21-3.31-11.81 2.71-14z"/>
	<path class="s3" d="m318.92 98.25c0.17-1.49 0.08-2.93 0.64-4.02 1.1-2.12 3.91-2.56 5.84-1.2 1.96 1.39 2.38 4.7 0.85 6.72-1.28 1.68-4.27 1.98-6.05 0.5-0.53-0.45-0.83-1.18-1.28-2z"/>
	<path class="s3" d="m139.46 95.08c1.78-2.86 3.56-3.51 5.78-2.28 1.89 1.04 2.8 3.74 1.98 5.85-0.77 2.01-2.9 3.01-5.11 2.41-2.28-0.61-3.31-2.82-2.65-5.98z"/>
	<path class="s3" d="m245.02 100.73c-4.1 0.85-6.4-0.56-6.36-3.79 0.02-1.94 0.73-3.6 2.7-4.36 1.79-0.69 3.49-0.44 4.75 1.07 1.43 1.71 1.38 3.67 0.45 5.59-0.27 0.56-0.9 0.93-1.54 1.49z"/>
	<path class="s3" d="m349.49 95.1c0.59 3.31-0.41 5.35-2.76 5.93-2.35 0.58-4.41-0.37-5.11-2.35-0.84-2.37 0.11-5.06 2.11-6.03 2.18-1.07 4.24-0.25 5.76 2.45z"/>
	<path class="s3" d="m370.99 95.99c-1.46 0-2.68 0-4.05 0 0.19-2.51 1.53-3.76 3.62-3.88 2.24-0.13 3.69 1.09 4.18 3.88-1.29 0-2.4 0-3.75 0z"/>
</svg>